<svg width="24" height="40" viewBox="0 0 24 40" fill="none" xmlns="http://www.w3.org/2000/svg">
<path d="M7.05658 2.91795L8.22358 2.56619C9.54608 2.16755 10.9591 2.81179 11.5254 4.07161L12.4271 6.07733C12.9098 7.15117 12.6554 8.41317 11.7944 9.21612L10.3001 10.6096C10.2564 10.6503 10.2288 10.7053 10.2221 10.7647C10.1778 11.1618 10.447 11.9352 11.0673 13.0095C11.5183 13.7908 11.9266 14.3387 12.2741 14.6468C12.5162 14.8615 12.6494 14.9079 12.7062 14.891L14.7165 14.2764C15.8421 13.9323 17.0619 14.3426 17.7506 15.2971L19.0313 17.0721C19.8374 18.1893 19.6925 19.7306 18.6922 20.6779L17.8058 21.5173C16.8494 22.4231 15.4879 22.7606 14.2191 22.4065C11.465 21.6378 8.99572 19.3137 6.78384 15.4826C4.56889 11.6462 3.7917 8.34173 4.50815 5.56994C4.83602 4.30146 5.80215 3.29607 7.05658 2.91795ZM7.48948 4.35413C6.73682 4.581 6.15715 5.18423 5.96043 5.94532C5.35778 8.27684 6.04663 11.2057 8.08288 14.7326C10.1164 18.2548 12.3054 20.315 14.6224 20.9617C15.3836 21.1742 16.2006 20.9717 16.7744 20.4282L17.6608 19.5888C18.1154 19.1582 18.1813 18.4576 17.8149 17.9498L16.5342 16.1748C16.2211 15.741 15.6667 15.5544 15.155 15.7109L13.1397 16.327C11.97 16.6757 10.9083 15.7342 9.76823 13.7595C8.99993 12.4288 8.64183 11.4001 8.7314 10.5982C8.7778 10.1827 8.97137 9.79763 9.27709 9.51254L10.7714 8.11909C11.1628 7.75411 11.2784 7.18047 11.059 6.69237L10.1573 4.68665C9.89989 4.114 9.25762 3.82116 8.65648 4.00236L7.48948 4.35413Z" fill="#616161"/>
<path d="M7.49805 36.207C6.98047 36.4805 6.33594 36.6172 5.56445 36.6172C4.56836 36.6172 3.77083 36.2965 3.17188 35.6553C2.57292 35.014 2.27344 34.1725 2.27344 33.1309C2.27344 32.0111 2.61035 31.1061 3.28418 30.416C3.95801 29.7259 4.8125 29.3809 5.84766 29.3809C6.51172 29.3809 7.06185 29.4769 7.49805 29.6689V30.543C6.99674 30.263 6.44336 30.123 5.83789 30.123C5.03385 30.123 4.38118 30.3916 3.87988 30.9287C3.38184 31.4658 3.13281 32.1836 3.13281 33.082C3.13281 33.9349 3.36556 34.6152 3.83105 35.123C4.2998 35.6276 4.91341 35.8799 5.67188 35.8799C6.375 35.8799 6.98372 35.7236 7.49805 35.4111V36.207ZM12.3955 36.5H11.5947V35.7188H11.5752C11.2269 36.3177 10.7142 36.6172 10.0371 36.6172C9.53906 36.6172 9.14844 36.4854 8.86523 36.2217C8.58529 35.958 8.44531 35.6081 8.44531 35.1719C8.44531 34.2376 8.99544 33.694 10.0957 33.541L11.5947 33.3311C11.5947 32.4814 11.2513 32.0566 10.5645 32.0566C9.96224 32.0566 9.41862 32.2617 8.93359 32.6719V31.8516C9.42513 31.5391 9.99154 31.3828 10.6328 31.3828C11.8079 31.3828 12.3955 32.0046 12.3955 33.248V36.5ZM11.5947 33.9707L10.3887 34.1367C10.0176 34.1888 9.73763 34.2816 9.54883 34.415C9.36003 34.5452 9.26562 34.778 9.26562 35.1133C9.26562 35.3574 9.35189 35.5576 9.52441 35.7139C9.7002 35.8669 9.93294 35.9434 10.2227 35.9434C10.6198 35.9434 10.9469 35.805 11.2041 35.5283C11.4645 35.2484 11.5947 34.8952 11.5947 34.4688V33.9707ZM14.7051 36.5H13.9043V29.0977H14.7051V36.5ZM17.127 36.5H16.3262V29.0977H17.127V36.5ZM18.4453 36.3193V35.46C18.8815 35.7822 19.3617 35.9434 19.8857 35.9434C20.5889 35.9434 20.9404 35.709 20.9404 35.2402C20.9404 35.1068 20.9095 34.9945 20.8477 34.9033C20.7891 34.8089 20.7077 34.7259 20.6035 34.6543C20.5026 34.5827 20.3822 34.5192 20.2422 34.4639C20.1055 34.4053 19.9574 34.3451 19.7979 34.2832C19.5765 34.1953 19.3812 34.1074 19.2119 34.0195C19.0459 33.9284 18.9059 33.8275 18.792 33.7168C18.6813 33.6029 18.5967 33.4743 18.5381 33.3311C18.4827 33.1878 18.4551 33.0202 18.4551 32.8281C18.4551 32.5938 18.5088 32.387 18.6162 32.208C18.7236 32.0257 18.8669 31.8743 19.0459 31.7539C19.2249 31.6302 19.4284 31.5374 19.6562 31.4756C19.8874 31.4137 20.125 31.3828 20.3691 31.3828C20.8021 31.3828 21.1895 31.4577 21.5312 31.6074V32.418C21.1634 32.1771 20.7402 32.0566 20.2617 32.0566C20.112 32.0566 19.9769 32.0745 19.8564 32.1104C19.736 32.1429 19.6318 32.1901 19.5439 32.252C19.4593 32.3138 19.3926 32.3887 19.3438 32.4766C19.2982 32.5612 19.2754 32.6556 19.2754 32.7598C19.2754 32.89 19.2982 32.999 19.3438 33.0869C19.3926 33.1748 19.4626 33.2529 19.5537 33.3213C19.6449 33.3896 19.7555 33.4515 19.8857 33.5068C20.016 33.5622 20.1641 33.6224 20.3301 33.6875C20.5514 33.7721 20.75 33.86 20.9258 33.9512C21.1016 34.0391 21.2513 34.14 21.375 34.2539C21.4987 34.3646 21.5931 34.4932 21.6582 34.6396C21.7266 34.7861 21.7607 34.9603 21.7607 35.1621C21.7607 35.4095 21.7054 35.6243 21.5947 35.8066C21.4873 35.9889 21.3424 36.1403 21.1602 36.2607C20.9779 36.3812 20.7679 36.4707 20.5303 36.5293C20.2926 36.5879 20.0436 36.6172 19.7832 36.6172C19.2689 36.6172 18.8229 36.5179 18.4453 36.3193Z" fill="#616161"/>
</svg>
