<svg width="24" height="48" viewBox="0 0 24 48" fill="none" xmlns="http://www.w3.org/2000/svg">
<path d="M21.0343 22.0012H16.8733L15.7123 22.9402V27.5972C15.7123 29.3262 17.1133 30.7282 18.8423 30.7282C20.5723 30.7282 21.9733 29.3262 21.9733 27.5972V22.9402C21.9733 22.4222 21.5533 22.0012 21.0343 22.0012Z" fill="#5059C9"/>
<path d="M22 19C22 20.104 21.105 21 20 21C18.895 21 18 20.104 18 19C18 17.896 18.895 17 20 17C21.105 17 22 17.896 22 19Z" fill="#5059C9"/>
<path d="M9.89211 22.0046H17.0961C17.5921 22.0046 17.9941 22.4066 17.9941 22.9026V28.5946C17.9941 31.0306 16.0201 33.0046 13.5841 33.0046H13.4041C10.9681 33.0046 8.99411 31.0306 8.99411 28.5946V22.9026C8.99411 22.4066 9.39611 22.0046 9.89211 22.0046Z" fill="#7B83EB"/>
<path d="M16.9066 18C16.9066 19.605 15.6056 20.907 13.9996 20.907C12.3946 20.907 11.0936 19.605 11.0936 18C11.0936 16.395 12.3946 15.093 13.9996 15.093C15.6056 15.093 16.9066 16.395 16.9066 18Z" fill="#7B83EB"/>
<path opacity="0.5" fill-rule="evenodd" clip-rule="evenodd" d="M15.0001 20.6815V20.0005C15.0001 19.4505 14.5281 19.0005 13.9511 19.0005H11.2711C11.6881 20.0945 12.7391 20.8755 13.9801 20.8755C14.3401 20.8755 14.6821 20.8015 15.0001 20.6815ZM8.99411 22.9025C8.99411 22.4065 9.39611 22.0045 9.89211 22.0045H15.0001V29.8395C15.0001 30.3895 14.3821 31.0005 13.7451 31.0005H9.71511C9.26211 30.3075 8.99411 29.4835 8.99411 28.5945V22.9025Z" fill="black"/>
<path d="M3 30C2.45 30 2 29.55 2 29V19C2 18.45 2.45 18 3 18H13C13.55 18 14 18.45 14 19V29C14 29.55 13.55 30 13 30H3Z" fill="#4B53BC"/>
<path d="M11.0001 22.0001H8.83511V27.8201H7.41211V22.0001H5.23511V20.5701H11.0001V22.0001Z" fill="white"/>
</svg>
